<?xml version="1.0" encoding="iso-8859-1"?>
<!-- Uploaded to: SVG Repo, www.svgrepo.com, Generator: SVG Repo Mixer Tools -->
<svg fill="#000000" height="32" width="32" version="1.1" id="Layer_1" xmlns="http://www.w3.org/2000/svg" xmlns:xlink="http://www.w3.org/1999/xlink"
	 viewBox="0 0 512 512" xml:space="preserve">
<g transform="translate(1 1)">
	<g>
		<path d="M255-1C114.2-1-1,114.2-1,255c0,93.002,50.269,174.822,124.969,219.665c0.98,0.905,1.985,1.533,3.167,1.878
			c0.895,0.52,1.798,1.027,2.7,1.536c0.953,0.541,1.907,1.08,2.867,1.608c0.483,0.265,0.969,0.525,1.455,0.787
			c1.431,0.775,2.867,1.536,4.311,2.283c0.179,0.092,0.358,0.183,0.536,0.275c2.983,1.532,5.992,3.007,9.029,4.418
			c0.745,0.524,1.537,0.892,2.428,1.113c15.048,6.796,30.731,12.099,46.847,15.839c0.031,0.007,0.062,0.015,0.092,0.022
			c5.9,1.367,11.854,2.533,17.86,3.477c0.893,0.354,1.877,0.541,3.043,0.541c0.17,0,0.328-0.014,0.491-0.021
			c1.107,0.158,2.213,0.316,3.323,0.459c0.518,0.067,1.038,0.125,1.556,0.189c1.477,0.182,2.955,0.355,4.437,0.511
			c0.699,0.074,1.401,0.141,2.102,0.209c1.321,0.128,2.643,0.247,3.967,0.355c0.766,0.062,1.533,0.122,2.302,0.178
			c1.296,0.094,2.593,0.175,3.892,0.249c0.763,0.044,1.526,0.089,2.291,0.126c1.391,0.067,2.785,0.116,4.18,0.16
			c0.661,0.021,1.321,0.05,1.984,0.065C250.884,510.97,252.94,511,255,511s4.116-0.03,6.169-0.079
			c0.662-0.016,1.322-0.044,1.983-0.065c1.395-0.044,2.79-0.094,4.182-0.16c0.764-0.037,1.525-0.083,2.287-0.126
			c1.302-0.074,2.602-0.155,3.9-0.249c0.764-0.055,1.526-0.115,2.288-0.177c1.335-0.108,2.668-0.229,3.999-0.358
			c0.688-0.067,1.375-0.132,2.061-0.205c1.517-0.16,3.03-0.337,4.542-0.523c0.479-0.059,0.959-0.113,1.437-0.175
			c34.214-4.42,67.056-15.721,96.902-33.244c1.043-0.334,1.948-0.896,2.829-1.679c11.477-6.934,22.5-14.791,32.969-23.547l2.56-2.56
			v-0.197C476.886,400.637,511,331.612,511,255C511,114.2,395.8-1,255-1z M135.108,450.84l-32.742-32.741
			c-0.532-9.746-0.841-19.537-0.932-29.159l35.38-35.38l47.787,47.787L135.108,450.84z M135.171,232.45l49.43,49.43l-47.787,47.787
			l-30.463-30.463c1.868-15.509,4.24-30.583,7.08-45.132L135.171,232.45z M120.294,223.418c0.394-1.556,0.795-3.103,1.201-4.643
			l1.729,1.729L120.294,223.418z M377.453,328.813L329.24,280.6l48.213-48.213l18.471,18.47c3.313,16.49,6.028,33.666,8.081,51.404
			L377.453,328.813z M406.173,323.987c0.97,11.663,1.65,23.54,2.04,35.586L389.4,340.76L406.173,323.987z M269.506,220.866
			l48.213-48.213l47.787,47.787l-48.213,48.213L269.506,220.866z M305.347,280.6l-49.067,49.067l-47.787-47.787l49.067-49.067
			L305.347,280.6z M257.56,208.92l-49.232-49.232l48.344-48.083l49.101,49.101L257.56,208.92z M245.613,220.867l-49.067,49.067
			l-49.397-49.397l49.2-48.934L245.613,220.867z M196.547,293.826l47.787,47.787L196.547,389.4l-47.787-47.787L196.547,293.826z
			 M256.28,353.56l48.213,48.213l-47.787,47.787l-48.213-48.213L256.28,353.56z M268.227,341.614l49.067-49.067l48.213,48.213
			l-49.067,49.067L268.227,341.614z M377.453,208.493l-47.787-47.787l26.919-26.919c10.429,19.983,19.605,42.972,27.23,68.343
			L377.453,208.493z M317.72,148.76l-47.36-47.36c0,0,66.304,0,66.304,0c3.899,5.333,7.679,11.036,11.332,17.084L317.72,148.76z
			 M187.587,84.333c9.19-9.557,18.38-17.209,27.774-22.829c0.348-0.203,0.695-0.417,1.045-0.615
			c0.143-0.083,0.286-0.164,0.429-0.247c12.118-6.761,24.803-10.378,37.856-10.434c0.476,0.004,0.952,0.009,1.427,0.022
			c0.142,0.002,0.284,0.009,0.426,0.012c22.983,0.772,44.398,12.648,65.016,34.091H187.587z M242.975,101.4l-46.593,46.341
			l-32.433-32.433c3.045-4.879,6.176-9.517,9.387-13.908H242.975z M184.403,159.656l-49.2,48.934l-8.42-8.42
			c7.938-26.016,17.511-49.494,28.402-69.732L184.403,159.656z M124.867,341.613l-23.235,23.235
			c0.374-14.947,1.212-29.63,2.474-43.996L124.867,341.613z M215.62,490.647c-0.763-0.128-1.528-0.247-2.289-0.382
			c-0.436-0.077-0.871-0.16-1.307-0.239c-1.593-0.293-3.183-0.596-4.765-0.92c-0.161-0.033-0.322-0.066-0.483-0.099
			c-17.307-3.583-33.944-9.053-49.686-16.184l-10.036-10.036l49.493-49.493l48.213,48.213L215.62,490.647z M273.316,493.234
			c-0.001-0.001-0.005-0.001-0.008,0c-1.812,0.139-3.632,0.251-5.455,0.349c-0.352,0.018-0.703,0.039-1.055,0.056
			c-1.542,0.076-3.089,0.132-4.639,0.178c-0.457,0.013-0.913,0.033-1.37,0.044c-1.925,0.046-3.855,0.074-5.791,0.074
			c-1.89,0-3.774-0.028-5.654-0.072c-0.677-0.016-1.353-0.044-2.029-0.065c-1.191-0.038-2.381-0.081-3.568-0.137
			c-0.826-0.039-1.652-0.085-2.478-0.133c-1.027-0.059-2.053-0.125-3.077-0.197c-0.423-0.03-0.845-0.063-1.268-0.095l19.781-19.781
			l19.519,19.519C275.255,493.06,274.289,493.16,273.316,493.234z M357.719,470.575c-18.917,9.082-39.19,15.748-60.417,19.581
			l-28.649-28.649l47.787-47.787l49.067,49.067L357.719,470.575z M407.488,420.805l-30.035,30.035l-49.067-49.067l49.067-49.067
			l31.142,31.142C408.579,396.439,408.208,408.683,407.488,420.805z M424.712,422.758c-0.023-0.153-0.044-0.305-0.076-0.457
			c0.685-13.01,1.03-26.325,1.03-39.301c0-0.765-0.011-1.523-0.014-2.287c0.007-0.207,0.005-0.414-0.004-0.621
			C424.953,196.47,358.487,50.856,271.251,34.656c-0.571-0.107-1.143-0.207-1.716-0.303c-0.61-0.101-1.22-0.205-1.832-0.294
			c-1.174-0.171-2.35-0.321-3.529-0.445c-0.352-0.037-0.706-0.061-1.058-0.094c-1-0.093-2.001-0.168-3.004-0.227
			c-0.388-0.022-0.775-0.044-1.164-0.062c-1.313-0.059-2.628-0.099-3.947-0.099c-1.319,0-2.634,0.04-3.947,0.099
			c-0.388,0.017-0.776,0.039-1.164,0.062c-1.003,0.058-2.004,0.134-3.004,0.227c-0.353,0.032-0.707,0.057-1.059,0.094
			c-1.179,0.124-2.355,0.273-3.529,0.445c-0.612,0.088-1.222,0.192-1.833,0.294c-0.572,0.096-1.144,0.196-1.715,0.303
			C151.052,50.941,84.333,198.005,84.333,383c0,0.767,0.01,1.542,0.013,2.31c-0.006,0.187-0.004,0.373,0.003,0.56
			c0.044,11.155,0.354,22.512,1.061,33.69c-0.25,1.063-0.282,2.155-0.094,3.226C42.564,379.558,16.067,320.227,16.067,255
			c0-131.413,107.52-238.933,238.933-238.933S493.933,123.587,493.933,255C493.933,320.212,467.447,379.532,424.712,422.758z"/>
	</g>
</g>
</svg>