<?xml version="1.0" encoding="iso-8859-1"?>
<!-- Uploaded to: SVG Repo, www.svgrepo.com, Generator: SVG Repo Mixer Tools -->
<svg fill="#000000" width="32" height="32" xmlns="http://www.w3.org/2000/svg"
    xmlns:xlink="http://www.w3.org/1999/xlink"
    viewBox="0 0 496 496" xml:space="preserve">
<g>
	<g>
		<g>
			<path d="M472,32h-72V0H100.688L0,100.688V496h400V192h72c13.232,0,24-10.768,24-24V56C496,42.768,485.232,32,472,32z M96,27.312
				V96H27.312L96,27.312z M384,480H16V112h96V16h272v16H184c-13.232,0-24,10.768-24,24v112c0,13.232,10.768,24,24,24h200V480z
				 M480,168c0,4.408-3.592,8-8,8H184c-4.408,0-8-3.592-8-8V56c0-4.408,3.592-8,8-8h288c4.408,0,8,3.592,8,8V168z"/>
			<polygon points="352,136.448 308.528,64 288,64 288,160 304,160 304,87.552 347.472,160 368,160 368,64 352,64 			"/>
			<rect x="32" y="128" width="16" height="16"/>
			<rect x="64" y="128" width="16" height="16"/>
			<rect x="32" y="160" width="16" height="16"/>
			<polygon points="192,80 224,80 224,144 192,144 192,160 272,160 272,144 240,144 240,80 272,80 272,64 192,64 			"/>
			<polygon points="384,80 416,80 416,144 384,144 384,160 464,160 464,144 432,144 432,80 464,80 464,64 384,64 			"/>
			<path d="M104,464h192V276.688L227.312,208H104V464z M232,235.312L268.688,272H232V235.312z M120,224h96v64h64v160H120V224z"/>
			<rect x="136" y="304" width="128" height="16"/>
			<rect x="136" y="336" width="128" height="16"/>
			<rect x="136" y="368" width="128" height="16"/>
			<rect x="136" y="400" width="128" height="16"/>
			<rect x="136" y="272" width="64" height="16"/>
		</g>
	</g>
</g>
</svg>