<!-- js-logo.svg -->
<svg xmlns="http://www.w3.org/2000/svg" width="32" height="32" viewBox="0 0 630 630">
  <rect width="630" height="630" fill="#f7df1e" />
  <path d="M423 492c12 20 27 35 54 35 23 0 38-11 38-27 0-19-15-26-40-37l-14-6c-41-17-68-39-68-85 0-42 32-74 82-74 36 0 62 13 80 47l-44 28c-9-16-18-22-36-22s-30 11-30 22c0 15 11 21 36 32l14 6c48 20 75 41 75 89 0 51-40 79-94 79-53 0-87-26-104-61zm-209 5c10 18 20 33 43 33 22 0 36-8 36-41V290h56v204c0 58-34 84-83 84-45 0-71-23-84-50z" fill="#000"/>
</svg>
