<?xml version="1.0" encoding="iso-8859-1"?>
<!-- Uploaded to: SVG Repo, www.svgrepo.com, Generator: SVG Repo Mixer Tools -->
<svg fill="#000000" height="32" width="32" version="1.1" id="Capa_1" xmlns="http://www.w3.org/2000/svg" xmlns:xlink="http://www.w3.org/1999/xlink"
	 viewBox="0 0 360 360" xml:space="preserve">
<g id="XMLID_910_">
	<path id="XMLID_911_" d="M345,123.612h-50V77.834L211.977,0H15v360h280v-53.66h50V123.612z M315,276.34H105V153.612h210V276.34z"/>
	<polygon id="XMLID_914_" points="183.024,245.023 209.617,176.863 195.697,176.863 177.457,228.416 159.024,176.863
		145.105,176.863 171.889,245.023 	"/>
	<path id="XMLID_915_" d="M258.336,243.872c2.655-0.769,4.992-1.888,7.009-3.36c2.016-1.472,3.6-3.296,4.752-5.472
		c1.151-2.176,1.727-4.704,1.727-7.584c0-4.48-1.137-8.208-3.408-11.185c-2.272-2.976-5.36-5.04-9.264-6.191
		c3.199-1.407,5.631-3.567,7.296-6.48c1.664-2.911,2.496-6.031,2.496-9.36c0-2.111-0.369-4.207-1.104-6.287
		c-0.737-2.079-1.776-3.937-3.12-5.568c-1.345-1.632-2.977-2.96-4.897-3.984c-1.92-1.022-4.064-1.536-6.432-1.536h-36.48v68.16
		h32.929C252.848,245.023,255.68,244.64,258.336,243.872z M230.16,188.191h18.24c2.112,0,3.888,0.769,5.328,2.305
		c1.439,1.535,2.16,3.616,2.16,6.239c0,2.688-0.785,4.801-2.353,6.336c-1.568,1.536-3.473,2.305-5.712,2.305H230.16V188.191z
		 M230.16,215.84h20.352c1.151,0,2.208,0.24,3.168,0.72c0.96,0.48,1.791,1.137,2.496,1.968c0.703,0.833,1.263,1.81,1.68,2.929
		c0.415,1.12,0.624,2.289,0.624,3.504c0,1.216-0.226,2.368-0.672,3.456c-0.449,1.089-1.057,2.032-1.824,2.832
		c-0.768,0.801-1.68,1.425-2.736,1.872c-1.056,0.448-2.192,0.672-3.407,0.672H230.16V215.84z"/>
</g>
</svg>